<svg width="119" height="121" viewBox="0 0 119 121" xmlns="http://www.w3.org/2000/svg" fill="none"><path d="M59.5 0l3.492 40.871 17.192-37.174-10.678 39.527 28.877-29.04-23.572 33.477 37.003-17.41-33.578 23.461 40.764-3.697-39.555 10.487 39.555 10.554-40.764-3.697 33.578 23.393-37.003-17.41 23.572 33.543-28.877-29.04 10.678 39.527-17.192-37.174-3.492 40.804-3.492-40.804-17.192 37.174 10.745-39.527-28.944 29.04 23.572-33.543-37.003 17.41 33.578-23.393-40.764 3.697 39.555-10.554-39.555-10.487 40.764 3.697-33.578-23.461 37.003 17.41-23.572-33.477 28.944 29.04-10.745-39.527 17.192 37.174 3.492-40.871z" fill="#E8E4D7"/></svg>