<svg width="262" height="241" viewBox="0 0 262 241" xmlns="http://www.w3.org/2000/svg" fill="none"><g clip-path="url(#a)" stroke="#E8E4D7" stroke-miterlimit="10"><path d="M101.635 195.387l-50.361 31.613-49.905-31.613 49.905-112.677 50.361 112.677zM51.273 82.71v158.29M73.15 131.258l-21.876 13.548M88.873 166.709l-37.6 23.259M29.854 131.032l21.42 13.775M14.357 166.484l36.916 23.484"/></g><path d="M260.939 171.941l-75.204 47.811-74.673-47.811 74.673-169.815 75.204 169.815zM185.734 2.125v238.875M206.791 50.29l-21.057 13.281M228.379 99.694l-42.645 26.738M248.375 145.202l-62.641 39.134M165.031 49.581l20.703 13.989M143.268 98.808l42.468 27.624M123.627 144.494l62.109 39.842" stroke="#E8E4D7" stroke-miterlimit="10"/><defs><clipPath id="a"><path fill="#fff" d="M0 80h103v161h-103z"/></clipPath></defs></svg>