<svg width="230" height="228" viewBox="0 0 230 228" xmlns="http://www.w3.org/2000/svg" fill="none"><path d="M76.019 119.957l-71.884-17.642h75.384l-.988-.874-55.45-49.081 65.62 34.332 1.167.611-.468-1.231-26.259-69.113 41.991 60.899.748 1.085.16-1.309 8.959-73.501 8.959 73.501.16 1.309.748-1.085 41.991-60.899-26.259 69.113-.468 1.231 1.167-.611 65.62-34.332-55.449 49.081-.988.874h75.384l-71.884 17.642-1.285.315 1.172.613 65.603 34.325-71.896-17.645-1.278-.314.747 1.083 42.01 60.927-55.45-49.082-.988-.874.16 1.309 8.956 73.358-26.265-69.13-.467-1.23-.467 1.23-26.265 69.13 8.956-73.358.16-1.309-.988.874-55.451 49.082 42.011-60.927.747-1.083-1.278.314-71.896 17.645 65.603-34.325 1.172-.613-1.285-.315z" stroke="#E8E4D7"/></svg>