<svg width="285" height="201" viewBox="0 0 285 201" xmlns="http://www.w3.org/2000/svg" fill="none"><g clip-path="url(#a)" stroke="#E8E4D7" stroke-miterlimit="10"><path d="M284.204 174.369l-29.336 18.457-29.071-18.457 29.071-65.787 29.336 65.787zM254.867 108.582v92.418M267.611 136.927l-12.744 7.91M276.77 157.625l-21.903 13.579M242.39 136.795l12.478 8.042M233.363 157.494l21.505 13.711"/></g><g clip-path="url(#b)" stroke="#E8E4D7" stroke-miterlimit="10"><path d="M84.859 162.753l-42.049 26.508-41.668-26.508 41.668-94.481 42.049 94.481zM42.81 68.272v132.728M61.076 108.98l-18.266 11.361M74.204 138.707l-31.394 19.502M24.926 108.791l17.885 11.55M11.988 138.518l30.823 19.691"/></g><path d="M218.114 143.404l-62.835 39.875-62.391-39.875 62.391-141.631 62.835 141.631zM155.279 1.772v199.228M172.873 41.943l-17.594 11.076M190.91 83.147l-35.631 22.3M207.617 121.102l-52.338 32.639M137.98 41.352l17.298 11.667M119.796 82.409l35.483 23.039M103.385 120.511l51.894 33.229" stroke="#E8E4D7" stroke-miterlimit="10"/><defs><clipPath id="a"><path fill="#fff" d="M225 107h60v94h-60z"/></clipPath><clipPath id="b"><path fill="#fff" d="M0 66h86v135h-86z"/></clipPath></defs></svg>