<svg width="25" height="25" viewBox="0 0 25 25" xmlns="http://www.w3.org/2000/svg" fill="none"><path d="M18.233 0h-11.465c-3.732 0-6.767 3.036-6.767 6.767v11.466c0 3.731 3.036 6.767 6.767 6.767h11.466c3.731 0 6.767-3.036 6.767-6.767v-11.466c0-3.732-3.036-6.767-6.767-6.767zm5.302 18.233c0 2.923-2.378 5.301-5.302 5.301h-11.465c-2.923 0-5.302-2.378-5.302-5.301v-11.466c0-2.923 2.378-5.302 5.302-5.302h11.466c2.923 0 5.301 2.378 5.301 5.302v11.466zM12.5 5.664c-3.769 0-6.836 3.066-6.836 6.836 0 3.769 3.066 6.836 6.836 6.836 3.769 0 6.836-3.066 6.836-6.836 0-3.769-3.066-6.836-6.836-6.836zm0 12.206c-2.961 0-5.37-2.409-5.37-5.37 0-2.961 2.409-5.37 5.37-5.37 2.961 0 5.37 2.409 5.37 5.37 0 2.961-2.409 5.37-5.37 5.37zM19.499 3.237c-1.114 0-2.02.906-2.02 2.02 0 1.114.906 2.02 2.02 2.02 1.114 0 2.02-.906 2.02-2.02 0-1.114-.906-2.02-2.02-2.02zm0 2.574c-.305 0-.554-.249-.554-.554 0-.306.249-.554.554-.554.306 0 .555.249.555.554 0 .306-.249.554-.555.554z" fill="#817742"/></svg>