<svg width="15" height="25" viewBox="0 0 15 25" xmlns="http://www.w3.org/2000/svg" fill="none"><path d="M9.188 24.951h-4.011c-.67 0-1.215-.544-1.215-1.213v-9.03h-2.34c-.67 0-1.215-.544-1.215-1.213v-3.869c0-.669.545-1.213 1.215-1.213h2.34v-1.938c0-1.921.604-3.556 1.748-4.727 1.149-1.176 2.754-1.798 4.642-1.798l3.059.005c.669.001 1.213.545 1.213 1.213v3.593c0 .669-.545 1.213-1.215 1.213l-2.06.001c-.628 0-.788.126-.822.164-.056.064-.123.245-.123.743v1.531h2.851c.215 0 .423.053.601.152.385.215.625.621.625 1.061l-.002 3.869c0 .668-.545 1.212-1.215 1.212h-2.861v9.03c0 .669-.545 1.213-1.215 1.213zm-3.758-1.466h3.505v-9.433c0-.446.364-.81.811-.81h3.265l.001-3.363h-3.266c-.447 0-.811-.363-.811-.81v-2.187c0-.573.058-1.224.491-1.713.523-.592 1.348-.66 1.923-.66l1.806-.001v-3.087l-2.805-.005c-3.034 0-4.92 1.939-4.92 5.059v2.594c0 .446-.364.81-.811.81h-2.744v3.363h2.744c.447 0 .811.363.811.81v9.433zm7.978-22.064z" fill="#817742"/></svg>