<svg viewBox="0 0 500 500" fill="none" xmlns="http://www.w3.org/2000/svg"><symbol id="a" preserveAspectRatio="none" viewBox="0 0 500 500"><path fill="#D2D2D2" d="M0 0h639v634H0z"/></symbol><symbol id="b" fill="#2A1510" viewBox="0 0 500 500"><path d="M197.252 247.128h-7.442v-9.921h10.082v-3.731h-14.243v32.065h4.161v-14.683h7.442v-3.73zM219.017 235.937c-1.44-1.985-3.681-2.937-6.722-2.937-3.12 0-5.281.952-6.801 2.937a7.992 7.992 0 00-1.361 3.016c-.32 1.19-.4 2.698-.4 4.524v12.064c0 1.428.08 2.778.32 3.968.241 1.27.721 2.54 1.521 3.572 1.44 1.984 3.681 2.937 6.801 2.937 3.121 0 5.282-.953 6.802-2.937a7.975 7.975 0 001.36-3.016c.321-1.191.401-2.699.401-4.524v-12.064c0-1.429-.08-2.778-.321-3.969-.32-1.27-.8-2.46-1.6-3.571zm-2.32 19.524c0 .953 0 1.747-.08 2.382-.081.873-.241 1.587-.641 2.301-.72 1.349-2 2.064-3.681 2.064-2.24 0-3.76-1.191-4.241-3.492-.16-.635-.24-1.747-.24-3.334v-11.826c0-.952 0-1.746.08-2.46.08-.794.24-1.588.641-2.302.72-1.349 2-2.064 3.76-2.064 2.241 0 3.681 1.191 4.241 3.413.161.635.241 1.746.241 3.413v11.905h-.08zM239.102 250.62c2.8-1.429 4.241-4.127 4.241-8.175 0-3.095-.96-5.477-2.801-7.143-1.44-1.27-3.521-1.826-6.241-1.826h-7.682v32.065h4.161v-13.572h4.001l4.401 13.572h4.321l-4.801-14.762.4-.159zm-2.641-2.778c-.64.317-1.76.397-3.201.397h-2.4v-11.112h2.4c.961 0 1.681.08 2.321.159.8.159 1.52.476 2.08 1.111.961.953 1.441 2.381 1.441 4.286-.08 2.699-.96 4.445-2.641 5.159zM252.945 265.541h4.081v-28.334h6.482v-3.731h-17.044v3.731h6.481v28.334zM279.832 250.62c2.8-1.429 4.241-4.127 4.241-8.175 0-3.095-.961-5.477-2.801-7.143-1.44-1.27-3.521-1.826-6.242-1.826h-7.601v32.065h4.161v-13.572h4.001l4.401 13.572h4.321l-4.801-14.762.32-.159zm-2.641-2.778c-.64.317-1.76.397-3.201.397h-2.4v-11.112h2.4c.96 0 1.681.08 2.321.159.8.159 1.52.476 2.08 1.111.961.873 1.441 2.381 1.441 4.286-.08 2.699-.881 4.445-2.641 5.159zM304.397 235.937c-1.44-1.985-3.68-2.937-6.801-2.937-3.041 0-5.361 1.032-6.802 2.937a7.975 7.975 0 00-1.36 3.016c-.32 1.19-.4 2.698-.4 4.524v12.064c0 1.428.08 2.778.32 3.968.24 1.35.72 2.54 1.52 3.572 1.441 1.984 3.681 2.937 6.802 2.937 3.121 0 5.281-.953 6.801-2.937a7.961 7.961 0 001.361-3.016c.32-1.191.4-2.699.4-4.524v-12.064c0-1.429-.08-2.778-.32-3.969a8.788 8.788 0 00-1.521-3.571zm-2.32 19.524c0 .953 0 1.747-.08 2.382-.08.793-.24 1.587-.64 2.301-.72 1.349-2.001 2.064-3.681 2.064-2.241 0-3.761-1.191-4.241-3.492-.16-.635-.24-1.747-.24-3.334v-11.826c0-.952 0-1.746.08-2.46.08-.794.24-1.588.64-2.302.72-1.349 2-2.064 3.761-2.064 2.24 0 3.681 1.191 4.241 3.413.16.635.24 1.746.24 3.413v11.905h-.08zM321.841 248.001c-2.4-1.826-3.84-3.016-4.481-3.731-1.04-1.111-1.52-2.301-1.52-3.651 0-1.111.4-2.063 1.12-2.777.72-.715 1.681-1.032 2.721-1.032 2.321 0 3.921 1.587 4.801 4.762l3.921-1.191c-1.44-5-4.321-7.381-8.722-7.381-2.241 0-4.081.635-5.521 1.825-1.761 1.429-2.641 3.334-2.641 5.794 0 2.461 1.12 4.763 3.281 6.906.32.317 1.44 1.269 4.481 3.571 1.76 1.349 3.041 2.461 3.761 3.334.96 1.031 1.44 2.222 1.44 3.571 0 1.27-.4 2.302-1.2 3.096-.8.793-1.841 1.19-3.121 1.19-2.961 0-4.801-1.984-5.601-5.794l-3.921 1.111c1.12 5.636 4.241 8.414 9.522 8.414 2.641 0 4.721-.794 6.322-2.223 1.52-1.508 2.32-3.333 2.32-5.635 0-2.222-.72-4.127-2-5.794-.961-1.032-2.641-2.54-4.962-4.365zM348.088 252.366c-.88-1.032-2.561-2.54-4.881-4.365-2.401-1.826-3.841-3.016-4.481-3.731-1.041-1.111-1.521-2.301-1.521-3.651 0-1.111.4-2.063 1.121-2.857.72-.714 1.68-1.032 2.72-1.032 2.321 0 3.921 1.588 4.801 4.762l3.921-1.19c-1.44-4.842-4.321-7.302-8.722-7.302-2.24 0-4.081.635-5.521 1.825-1.761 1.429-2.641 3.334-2.641 5.794 0 2.461 1.121 4.763 3.281 6.906.32.317 1.44 1.269 4.481 3.571 1.76 1.429 3.041 2.461 3.761 3.334.96 1.031 1.44 2.222 1.44 3.571 0 1.27-.4 2.302-1.2 3.096-.8.793-1.84 1.19-3.121 1.19-2.96 0-4.801-1.984-5.601-5.794l-3.921 1.111c1.12 5.636 4.241 8.414 9.522 8.414 2.641 0 4.721-.794 6.322-2.223 1.52-1.508 2.32-3.333 2.32-5.635-.08-2.222-.72-4.127-2.08-5.794zM149 233.397v19.287l12.403 13.016 12.323-12.778.08-.08v-19.445H149zm11.683 25.477v4.127l-3.921-4.127h3.921zm0-5.714v4.286h-5.281l-4.081-4.286h9.362zm0-5.159v3.809H150.44v-3.809h10.243zm4.401 5.159v6.746l-2.961 3.095v-9.841h2.961zm7.282-10.001v.794l-7.042 7.857h-3.281v-1.904l6.002-6.747h4.321zm-6.882-1.428l-6.242-6.906h5.762l6.241 6.906h-5.761zm-3.361 6.032v-4.604h4.161l-4.161 4.604zm9.442 5.397l-5.121 5.317v-5.317h5.121zm.801-7.143v5.714h-5.122l5.122-5.714zm-5.522-11.192h5.522v6.191l-5.522-6.191zm-3.28 6.906h-5.762l-6.241-6.906h5.761l6.242 6.906zm-13.124 0v-6.112l5.442 6.112h-5.442zm10.243 1.428v3.413H150.44v-3.413h10.243z"/></symbol><use xmlns:xlink="http://www.w3.org/1999/xlink" xlink:href="#a"/><use xmlns:xlink="http://www.w3.org/1999/xlink" xlink:href="#b"/></svg>