<svg width="38" height="50" viewBox="0 0 38 50" xmlns="http://www.w3.org/2000/svg" fill="none"><path d="M0 0v29.853l19 20.147 18.877-19.779.123-.123v-30.098h-38zm17.897 39.435v6.388l-6.006-6.388h6.006zm0-8.845v6.634h-8.09l-6.252-6.634h14.342zm0-7.985v5.897h-15.69v-5.897h15.69zm6.742 7.985v10.442l-4.535 4.791v-15.233h4.535zm11.155-15.479v1.228l-10.787 12.162h-5.026v-2.948l9.194-10.442h6.619zm-10.542-2.211l-9.561-10.688h8.826l9.561 10.688h-8.826zm-5.148 9.337v-7.125h6.374l-6.374 7.125zm14.465 8.354l-7.845 8.231v-8.231h7.845zm1.226-11.056v8.845h-7.845l7.845-8.845zm-8.458-17.322h8.458v9.582l-8.458-9.582zm-5.026 10.688h-8.826l-9.561-10.688h8.826l9.561 10.688zm-20.103 0v-9.46l8.335 9.46h-8.335zm15.69 2.211v5.283h-15.69v-5.283h15.69z" fill="#67473B"/></svg>