<svg width="146" height="24" viewBox="0 0 146 24" xmlns="http://www.w3.org/2000/svg" fill="none"><path d="M34.804 10.396h-5.368v-7.145h7.272v-2.686h-10.274v23.092h3.001v-10.574h5.368v-2.687zM50.503 2.337c-1.039-1.429-2.655-2.115-4.848-2.115-2.251 0-3.809.686-4.906 2.115-.462.629-.808 1.372-.981 2.172-.231.857-.289 1.943-.289 3.258v8.688c0 1.029.058 2.001.231 2.858.173.915.52 1.829 1.097 2.572 1.039 1.429 2.655 2.115 4.906 2.115s3.809-.686 4.906-2.115c.462-.629.808-1.372.981-2.172.231-.857.289-1.943.289-3.258v-8.688c0-1.029-.058-2.001-.231-2.858-.231-.915-.577-1.772-1.154-2.572zm-1.674 14.061c0 .686 0 1.257-.058 1.715-.058.629-.173 1.143-.462 1.658-.52.972-1.443 1.486-2.655 1.486-1.616 0-2.713-.857-3.059-2.515-.115-.457-.173-1.257-.173-2.401v-8.517c0-.686 0-1.257.058-1.772.058-.572.173-1.143.462-1.658.519-.972 1.443-1.486 2.713-1.486 1.616 0 2.655.857 3.059 2.458.115.457.173 1.257.173 2.458v8.574h-.058zM64.99 12.911c2.02-1.029 3.059-2.972 3.059-5.887 0-2.229-.693-3.944-2.02-5.144-1.039-.915-2.54-1.315-4.502-1.315h-5.541v23.092h3.001v-9.774h2.886l3.175 9.774h3.117l-3.463-10.631.289-.114zm-1.905-2.001c-.462.229-1.27.286-2.309.286h-1.732v-8.002h1.732c.693 0 1.212.057 1.674.114.577.114 1.097.343 1.501.8.693.686 1.039 1.715 1.039 3.087-.058 1.943-.693 3.201-1.905 3.715zM74.975 23.657h2.944v-20.406h4.675v-2.686h-12.294v2.686h4.675v20.406zM94.369 12.911c2.02-1.029 3.059-2.972 3.059-5.887 0-2.229-.693-3.944-2.02-5.144-1.039-.915-2.54-1.315-4.502-1.315h-5.483v23.092h3.001v-9.774h2.886l3.174 9.774h3.117l-3.463-10.631.231-.114zm-1.905-2.001c-.462.229-1.27.286-2.309.286h-1.731v-8.002h1.731c.693 0 1.212.057 1.674.114.577.114 1.097.343 1.501.8.693.629 1.039 1.715 1.039 3.087-.058 1.943-.635 3.201-1.905 3.715zM112.088 2.337c-1.039-1.429-2.655-2.115-4.906-2.115-2.193 0-3.867.743-4.906 2.115-.462.629-.808 1.372-.981 2.172-.231.857-.289 1.943-.289 3.258v8.688c0 1.029.058 2.001.231 2.858.173.972.519 1.829 1.097 2.572 1.039 1.429 2.655 2.115 4.906 2.115s3.809-.686 4.906-2.115c.461-.629.808-1.372.981-2.172.231-.857.288-1.943.288-3.258v-8.688c0-1.029-.057-2.001-.23-2.858-.174-.915-.52-1.772-1.097-2.572zm-1.674 14.061c0 .686 0 1.257-.058 1.715-.057.572-.173 1.143-.461 1.658-.52.972-1.443 1.486-2.655 1.486-1.616 0-2.713-.857-3.059-2.515-.116-.457-.174-1.257-.174-2.401v-8.517c0-.686 0-1.257.058-1.772.058-.572.173-1.143.462-1.658.519-.972 1.443-1.486 2.713-1.486 1.616 0 2.655.857 3.059 2.458.115.457.173 1.257.173 2.458v8.574h-.058zM124.67 11.025c-1.731-1.315-2.77-2.172-3.232-2.686-.75-.8-1.096-1.658-1.096-2.629 0-.8.288-1.486.808-2.001.519-.514 1.212-.743 1.962-.743 1.674 0 2.828 1.143 3.463 3.43l2.828-.857c-1.039-3.601-3.117-5.316-6.291-5.316-1.616 0-2.944.457-3.983 1.315-1.269 1.029-1.904 2.401-1.904 4.173 0 1.772.808 3.429 2.366 4.973.231.229 1.039.915 3.232 2.572 1.27.972 2.194 1.772 2.713 2.401.693.743 1.039 1.6 1.039 2.572 0 .915-.289 1.658-.866 2.229-.577.572-1.327.857-2.251.857-2.135 0-3.463-1.429-4.04-4.173l-2.828.8c.808 4.058 3.059 6.059 6.868 6.059 1.905 0 3.406-.572 4.56-1.6 1.097-1.086 1.674-2.401 1.674-4.058 0-1.6-.52-2.972-1.443-4.173-.693-.743-1.905-1.829-3.579-3.144zM143.602 14.169c-.635-.743-1.847-1.829-3.521-3.144-1.732-1.315-2.77-2.172-3.232-2.686-.751-.8-1.097-1.658-1.097-2.629 0-.8.289-1.486.808-2.058.52-.514 1.212-.743 1.963-.743 1.673 0 2.828 1.143 3.463 3.429l2.828-.857c-1.039-3.487-3.117-5.259-6.291-5.259-1.616 0-2.944.457-3.983 1.315-1.27 1.029-1.905 2.401-1.905 4.173 0 1.772.808 3.429 2.367 4.973.231.229 1.039.915 3.232 2.572 1.27 1.029 2.193 1.772 2.713 2.401.692.743 1.039 1.6 1.039 2.572 0 .915-.289 1.658-.866 2.229-.577.572-1.328.857-2.251.857-2.136 0-3.463-1.429-4.04-4.173l-2.828.8c.808 4.058 3.059 6.059 6.868 6.059 1.905 0 3.405-.572 4.56-1.6 1.096-1.086 1.673-2.401 1.673-4.058-.057-1.6-.519-2.972-1.5-4.173zM0 .508v13.889l8.946 9.374 8.889-9.202.058-.057v-14.004h-17.892zm8.427 18.348v2.972l-2.828-2.972h2.828zm0-4.115v3.087h-3.809l-2.944-3.087h6.753zm0-3.715v2.743h-7.388v-2.743h7.388zm3.175 3.715v4.859l-2.136 2.229v-7.088h2.136zm5.252-7.202v.572l-5.079 5.659h-2.366v-1.372l4.329-4.858h3.117zm-4.964-1.029l-4.502-4.973h4.156l4.502 4.973h-4.156zm-2.424 4.344v-3.315h3.001l-3.001 3.315zm6.811 3.887l-3.694 3.83v-3.83h3.694zm.577-5.144v4.115h-3.694l3.694-4.115zm-3.982-8.059h3.982v4.458l-3.982-4.458zm-2.367 4.973h-4.156l-4.502-4.973h4.156l4.502 4.973zm-9.466 0v-4.401l3.925 4.401h-3.925zm7.388 1.029v2.458h-7.388v-2.458h7.388z" fill="#2A1510"/></svg>