<svg width="124" height="162" viewBox="0 0 124 162" xmlns="http://www.w3.org/2000/svg" fill="none"><path opacity=".4" d="M62.002 161.276l-61.502-64.753v-96.023h123v96.811l-.253.251-.007.008-61.238 63.706zm-3.102-33.507v-.5h-21.262l.799.844 19.6 20.698.863.911v-21.953zm0-28.658v-.5h-48.464l.801.844 20.4 21.494.148.155h27.115v-21.993zm0-25.872v-.5h-52.2v20.106h52.2v-19.606zm22 25.872v-.5h-15.8v51.105000000000004l.862-.904 14.8-15.523.138-.145v-34.033zm36.4-50.152v-.5h-22.325000000000003l-.149.168-30 33.833-.126.142v10.243h17.124l.149-.167 35.2-39.405.127-.142v-4.171zm-35.272-6.83l.149.165h30.146l-.752-.835-31.2-34.629-.149-.165h-30.145000000000003l.752.835 31.2 34.629zm-16.928 29.916v1.302l.872-.967 20.8-23.086.752-.835h-22.423000000000002v23.586zm48.061 27.413l.812-.846h-27.273000000000003v28.410999999999998l.861-.897 25.6-26.668zm4.139-36.169v-1.31l-.873.977-25.6 28.658-.744.833h27.217000000000002v-29.158zm-28.1-56.623h-1.114l.74.832 27.6 31.047.874.983v-32.862h-28.1zm-16.4 35.629h1.124l-.752-.835-31.2-34.629-.149-.165h-30.145000000000003l.752.835 31.2 34.629.149.165h29.022000000000002zm-66.1-.5v.5h28.811999999999998l-.738-.832-27.2-30.649-.874-.985v31.966zm52.2 7.165v-.5h-52.2v18.116h52.2v-17.616z" stroke="#E8E4D7"/></svg>