<svg width="244" height="319" viewBox="0 0 244 319" xmlns="http://www.w3.org/2000/svg" fill="none"><path d="M0 0v190.459l122 128.541 121.213-126.189.787-.784v-192.027h-244zm114.916 251.595v40.756l-38.568-40.756h38.568zm0-56.433v42.324h-51.948l-40.142-42.324h92.09zm0-50.946v37.622h-100.748v-37.622h100.748zm43.29 50.946v66.622l-29.122 30.567v-97.189h29.122zm71.626-98.757v7.838l-69.264 77.595h-32.271v-18.811l59.032-66.622h42.503zm-67.69-14.108l-61.394-68.189h56.671l61.394 68.189h-56.671zm-33.058 59.568v-45.46h40.929l-40.929 45.46zm92.877 53.297l-50.374 52.514v-52.514h50.374zm7.871-70.54v56.432h-50.374l50.374-56.432zm-54.309-110.514h54.309v61.135l-54.309-61.135zm-32.271 68.189h-56.671l-61.394-68.189h56.671l61.394 68.189zm-129.084 0v-60.351l53.523 60.351h-53.523zm100.748 14.108v33.703h-100.748v-33.703h100.748z" fill="#67473B"/></svg>