<svg width="329" height="160" viewBox="0 0 329 160" xmlns="http://www.w3.org/2000/svg" fill="none"><path d="M214.295 114.152l-49.971 31.742-49.618-31.742 49.618-112.74 49.971 112.74zM164.324 1.411v158.589M178.316 33.387l-13.992 8.817M192.661 66.186l-28.337 17.752M205.947 96.4l-41.623 25.981M150.567 32.917l13.757 9.287M136.105 65.599l28.219 18.339M123.055 95.929l41.27 26.451" stroke="#E8E4D7" stroke-miterlimit="10"/><path d="M100.295 114.152l-49.971 31.742-49.618-31.742 49.618-112.74 49.971 112.74zM50.324 1.411v158.589M64.316 33.387l-13.992 8.817M78.661 66.186l-28.337 17.752M91.947 96.4l-41.623 25.981M36.567 32.917l13.757 9.287M22.105 65.599l28.219 18.339M9.055 95.929l41.27 26.451" stroke="#E8E4D7" stroke-miterlimit="10"/><path d="M328.295 114.152l-49.971 31.742-49.618-31.742 49.618-112.74 49.971 112.74zM278.324 1.411v158.589M292.316 33.387l-13.992 8.817M306.661 66.186l-28.337 17.752M319.947 96.4l-41.623 25.981M264.567 32.917l13.757 9.287M250.105 65.599l28.219 18.339M237.055 95.929l41.27 26.451" stroke="#E8E4D7" stroke-miterlimit="10"/></svg>